<?xml version="1.0" encoding="UTF-8"?>
<svg id="Collection_x5F_paths" xmlns="http://www.w3.org/2000/svg" version="1.1" viewBox="0 0 24 24">
  <!-- Generator: Adobe Illustrator 29.2.1, SVG Export Plug-In . SVG Version: 2.1.0 Build 116)  -->
  <defs>
    <style>
      .st0 {
        fill: #fafafa;
      }
    </style>
  </defs>
  <path class="st0" d="M4,12c0-1.1.9-2,2-2h14c0-.6-.4-1-1-1H4c-.6,0-1,.4-1,1v2c0,.6.4,1,1,1v-1Z"/>
  <rect class="st0" x="5" y="11" width="8" height="5" rx="1" ry="1"/>
  <rect class="st0" x="14" y="11" width="8" height="5" rx="1" ry="1"/>
  <path class="st0" d="M2,10c0-1.1.9-2,2-2h2c0-.6-.4-1-1-1h-3c-.6,0-1,.4-1,1v2c0,.6.4,1,1,1v-1Z"/>
  <path class="st0" d="M11,7h-3c-.6,0-1,.4-1,1h5c0-.6-.4-1-1-1Z"/>
  <path class="st0" d="M17,7h-3c-.6,0-1,.4-1,1h5c0-.6-.4-1-1-1Z"/>
</svg>