<?xml version="1.0" encoding="UTF-8"?>
<svg id="Frontpage-container_x5F_paths" xmlns="http://www.w3.org/2000/svg" version="1.1" viewBox="0 0 24 24">
  <!-- Generator: Adobe Illustrator 29.2.1, SVG Export Plug-In . SVG Version: 2.1.0 Build 116)  -->
  <defs>
    <style>
      .st0 {
        fill: #fafafa;
      }
    </style>
  </defs>
  <path class="st0" d="M8,8h11c.6,0,1,.4,1,1v10c0,.6-.4,1-1,1h-10c-.6,0-1-.4-1-1v-11h0Z"/>
  <path class="st0" d="M7,7h11c0-.6-.4-1-1-1H6v11c0,.6.4,1,1,1V7Z"/>
  <path class="st0" d="M5,5h11c0-.6-.4-1-1-1H5c-.6,0-1,.4-1,1v10c0,.6.4,1,1,1V5Z"/>
</svg>