<?xml version="1.0" encoding="UTF-8"?>
<svg id="Frontpage_x5F_paths" xmlns="http://www.w3.org/2000/svg" version="1.1" viewBox="0 0 24 24">
  <!-- Generator: Adobe Illustrator 29.2.1, SVG Export Plug-In . SVG Version: 2.1.0 Build 116)  -->
  <defs>
    <style>
      .st0 {
        fill: #fafafa;
      }
    </style>
  </defs>
  <path class="st0" d="M19,20H5c-.6,0-1-.4-1-1V5c0-.6.4-1,1-1h14c.6,0,1,.4,1,1v14c0,.6-.4,1-1,1ZM12,13h0c0-.6-.4-1-1-1h-4c-.6,0-1,.4-1,1h0c0,.6.4,1,1,1h4c.6,0,1-.4,1-1ZM10,17h0c0-.6-.4-1-1-1h-2c-.6,0-1,.4-1,1h0c0,.6.4,1,1,1h2c.6,0,1-.4,1-1ZM15,17h0c0-.6-.4-1-1-1h-2c-.6,0-1,.4-1,1h0c0,.6.4,1,1,1h2c.6,0,1-.4,1-1ZM18,9v-2c0-.6-.4-1-1-1H7c-.6,0-1,.4-1,1v2c0,.6.4,1,1,1h10c.6,0,1-.4,1-1ZM18,13h0c0-.6-.4-1-1-1h-3c-.6,0-1,.4-1,1h0c0,.6.4,1,1,1h3c.6,0,1-.4,1-1Z"/>
</svg>