<?xml version="1.0" encoding="UTF-8"?>
<svg id="Frontpage_x5F_paths" xmlns="http://www.w3.org/2000/svg" version="1.1" viewBox="0 0 24 24">
  <!-- Generator: Adobe Illustrator 29.3.1, SVG Export Plug-In . SVG Version: 2.1.0 Build 151)  -->
  <defs>
    <style>
      .st0 {
        fill: #fafafa;
      }
    </style>
  </defs>
  <path class="st0" d="M19,4H5c-.6,0-1,.4-1,1v14c0,.6.4,1,1,1h14c.6,0,1-.4,1-1V5c0-.6-.4-1-1-1ZM16.9,16.4H7c-.6,0-1-.5-1-1s.5-1,1-1h9.9c.6,0,1,.5,1,1s-.5,1-1,1ZM16.9,13.3H7c-.6,0-1-.5-1-1s.5-1,1-1h9.9c.6,0,1,.5,1,1s-.5,1-1,1ZM17,10.3H7.1c-.6,0-1-.5-1-1s.5-1,1-1h9.9c.6,0,1,.5,1,1s-.5,1-1,1Z"/>
</svg>