<?xml version="1.0" encoding="UTF-8"?>
<svg id="Row-cluster_x5F_paths" xmlns="http://www.w3.org/2000/svg" version="1.1" viewBox="0 0 24 24">
  <!-- Generator: Adobe Illustrator 29.3.1, SVG Export Plug-In . SVG Version: 2.1.0 Build 151)  -->
  <defs>
    <style>
      .st0 {
        fill: #fafafa;
      }
    </style>
  </defs>
  <path class="st0" d="M3,13.1h4c.6,0,1,.4,1,1h0c0,.6-.4,1-1,1H3c-.6,0-1-.4-1-1h0c0-.6.4-1,1-1Z"/>
  <path class="st0" d="M17,13.1h4c.6,0,1,.4,1,1h0c0,.6-.4,1-1,1h-4c-.6,0-1-.4-1-1h0c0-.6.4-1,1-1Z"/>
  <path class="st0" d="M10,13.1h4c.6,0,1,.4,1,1h0c0,.6-.4,1-1,1h-4c-.6,0-1-.4-1-1h0c0-.6.4-1,1-1Z"/>
  <path class="st0" d="M3,8.9h4c.6,0,1,.4,1,1h0c0,.6-.4,1-1,1H3c-.6,0-1-.4-1-1h0c0-.6.4-1,1-1Z"/>
  <path class="st0" d="M17,8.9h4c.6,0,1,.4,1,1h0c0,.6-.4,1-1,1h-4c-.6,0-1-.4-1-1h0c0-.6.4-1,1-1Z"/>
  <path class="st0" d="M10,8.9h4c.6,0,1,.4,1,1h0c0,.6-.4,1-1,1h-4c-.6,0-1-.4-1-1h0c0-.6.4-1,1-1Z"/>
</svg>