<?xml version="1.0" encoding="UTF-8"?>
<svg id="Smart-list_x5F_paths" xmlns="http://www.w3.org/2000/svg" version="1.1" viewBox="0 0 24 24">
  <!-- Generator: Adobe Illustrator 29.2.1, SVG Export Plug-In . SVG Version: 2.1.0 Build 116)  -->
  <defs>
    <style>
      .st0 {
        fill: #fafafa;
      }
    </style>
  </defs>
  <rect class="st0" x="2" y="13" width="6" height="4" rx="1" ry="1"/>
  <rect class="st0" x="16" y="13" width="6" height="4" rx="1" ry="1"/>
  <rect class="st0" x="9" y="13" width="6" height="4" rx="1" ry="1"/>
  <path class="st0" d="M21.9,9l-.5-.5c-.1-.1-.2-.3-.1-.5l.2-.6c0-.2,0-.4-.3-.4h-.7c-.2,0-.3,0-.4-.2l-.3-.6c0-.2-.3-.2-.5,0l-.5.5c-.1,0-.3.2-.5,0l-.6-.2c-.2,0-.4,0-.4.3v.7c0,.2,0,.3-.2.4l-.6.3c-.2,0-.2.3,0,.5l.5.5c.1.1.2.3.1.5l-.2.6c0,.2,0,.4.3.4h.7c.2,0,.3,0,.4.2l.3.6c0,.2.3.2.5,0l.5-.5c.1-.1.3-.2.5-.1l.6.2c.2,0,.4,0,.4-.3v-.7c0-.2,0-.3.2-.4l.6-.3c.2,0,.2-.3,0-.5h0ZM19.1,9.7c-.5,0-.9-.6-.8-1.2s.6-.9,1.2-.8.9.6.8,1.2-.6.9-1.2.8Z"/>
  <path class="st0" d="M16.1,8.6v-.5l.5-.5c.1-.2.1-.4,0-.5l-.6-.4c-.2,0-.3-.3-.2-.5v-.7c.1-.2,0-.4-.3-.4h-.7c-.2,0-.4,0-.5-.2l-.4-.6c-.1-.2-.4-.2-.5,0l-.6.5c-.1,0-.4.2-.5,0l-.7-.3c-.2,0-.4,0-.5.2l-.2.7c0,.2-.2.3-.4.4h-.7c-.2.2-.3.4-.2.6l.3.7v.5l-.5.5c-.1.2-.1.4,0,.5l.6.4c.2.1.3.3.2.5v.7c-.1.2,0,.4.3.4h.7c.2,0,.4,0,.5.2l.4.6c.1.2.4.2.5,0l.6-.5c.1-.1.4-.2.5,0l.7.3c.2,0,.4,0,.5-.2l.2-.7c0-.2.2-.3.4-.4h.7c.2-.2.3-.4.2-.6,0,0-.3-.7-.3-.7ZM12.8,8.7c-.5,0-.9-.6-.8-1.2s.6-.9,1.2-.8.9.6.8,1.2c0,.6-.6.9-1.2.8Z"/>
</svg>