<?xml version="1.0" encoding="UTF-8"?>
<svg id="Smart-list_x5F_paths" xmlns="http://www.w3.org/2000/svg" version="1.1" viewBox="0 0 24 24">
  <!-- Generator: Adobe Illustrator 29.3.1, SVG Export Plug-In . SVG Version: 2.1.0 Build 151)  -->
  <defs>
    <style>
      .st0 {
        fill: #fafafa;
      }
    </style>
  </defs>
  <path class="st0" d="M21.7,13.7l-.8-.8c-.2-.2-.3-.5-.2-.8l.3-.9c0-.3,0-.6-.5-.6h-1.1c-.3,0-.5,0-.6-.3l-.5-.9c0-.3-.5-.3-.8,0l-.8.8c-.2,0-.5.3-.8,0l-.9-.3c-.3,0-.6,0-.6.5v1.1c0,.3,0,.5-.3.6l-.9.5c-.3,0-.3.5,0,.8l.8.8c.2.2.3.5.2.8l-.3.9c0,.3,0,.6.5.6h1.1c.3,0,.5,0,.6.3l.5.9c0,.3.5.3.8,0l.8-.8c.2-.2.5-.3.8-.2l.9.3c.3,0,.6,0,.6-.5v-1.1c0-.3,0-.5.3-.6l.9-.5c.3,0,.3-.5,0-.8h0v.2ZM17.3,14.8c-.8,0-1.4-.9-1.3-1.9s.9-1.4,1.9-1.3,1.4.9,1.3,1.9-.9,1.4-1.9,1.3Z"/>
  <path class="st0" d="M12.6,13.1v-.8l.8-.8c.2-.3.2-.6,0-.8l-.9-.6c-.3,0-.5-.5-.3-.8v-1.1c.2-.3,0-.6-.5-.6h-1.1c-.3,0-.6,0-.8-.3l-.6-.9c-.2-.3-.6-.3-.8,0l-.9.8c-.2,0-.6.3-.8,0l-1.1-.5c-.3,0-.6,0-.8.3l-.3,1.1c0,.3-.3.5-.6.6h-1.1c-.3.3-.5.6-.3.9l.5,1.1v.8l-.8.8c-.2.3-.2.6,0,.8l.9.6c.3.2.5.5.3.8v1.1c-.2.3,0,.6.5.6h1.1c.3,0,.6,0,.8.3l.6.9c.2.3.6.3.8,0l.9-.8c.2-.2.6-.3.8,0l1.1.5c.3,0,.6,0,.8-.3l.3-1.1c0-.3.3-.5.6-.6h1.1c.3-.3.5-.6.3-.9,0,0-.5-1.1-.5-1.1ZM7.4,13.3c-.8,0-1.4-.9-1.3-1.9s.9-1.4,1.9-1.3,1.4.9,1.3,1.9c0,.9-.9,1.4-1.9,1.3Z"/>
</svg>