<?xml version="1.0" encoding="UTF-8"?>
<svg id="URL_x5F_paths" xmlns="http://www.w3.org/2000/svg" version="1.1" viewBox="0 0 24 24">
  <!-- Generator: Adobe Illustrator 29.2.1, SVG Export Plug-In . SVG Version: 2.1.0 Build 116)  -->
  <defs>
    <style>
      .st0 {
        fill: #fafafa;
      }
    </style>
  </defs>
  <g>
    <rect class="st0" x="11" y="9" width="1" height="2"/>
    <path class="st0" d="M18,9h-2v2h2v4h-7v-6c-1.1,0-2,.9-2,2v4c0,1.1.9,2,2,2h7c1.1,0,2-.9,2-2v-4c0-1.1-.9-2-2-2Z"/>
  </g>
  <g>
    <rect class="st0" x="12" y="12" width="1" height="2"/>
    <path class="st0" d="M15,8c0-1.1-.9-2-2-2h-7c-1.1,0-2,.9-2,2v4c0,1.1.9,2,2,2h2v-2h-2v-4h7v6c1.1,0,2-.9,2-2v-4Z"/>
  </g>
</svg>